# File created by Blade
# Date/Time:  Wed Jan 21 17:10:37 2015
# Frame Rate: 120.000 fps
#------------------------------------------------------
:FULLY-SPECIFIED
:DEGREES
993
root 19.756324 3.410876 -11.599723 -238.163889 4.072194 -187.023132
Spine 63.182156 4.570058 -8.591883
Head -16.274164 7.134839 -0.071507
LeftShoulder 13.557182 -30.836073 -13.452949
LeftArm 19.796180 23.548844 -69.946080
LeftForeArm -83.338869 0.000000 71.505807
LeftHand -3.896823 -0.000000 -13.878064
LeftHandThumb1 -26.253704 0.000000 33.147579
RightShoulder 10.672543 10.348623 -25.172797
RightArm 66.899350 6.455098 5.585367
RightForeArm -7.852539 -0.000000 86.736486
RightHand -7.690962 -0.000000 15.516403
RightHandThumb1 -24.326973 -0.000000 -32.862282
LeftUpLeg -32.101480 33.679553 -2.373934
LeftLeg -2.120153 -0.000000 0.000000
LeftFoot 18.926717 36.668704 -1.788528
LeftToeBase 18.305427 -0.000000 -0.000000
RightUpLeg -110.021170 8.058306 58.027358
RightLeg 108.964850 -0.000000 -0.000000
RightFoot -19.786342 -32.089184 15.882753
RightToeBase 9.002907 -0.000000 -0.000000
994
root 19.749314 3.414954 -11.598919 -238.245045 4.020000 -187.012810
Spine 63.000515 4.554722 -8.577892
Head -15.844211 7.081540 0.272926
LeftShoulder 13.592207 -31.012120 -13.392757
LeftArm 20.179065 24.023982 -69.638185
LeftForeArm -83.256853 -0.000000 69.525731
LeftHand -4.120093 0.000000 -13.633228
LeftHandThumb1 -26.253704 0.000000 33.147579
RightShoulder 10.821111 10.523856 -25.340797
RightArm 66.780080 6.164554 5.222093
RightForeArm -8.647053 -0.000000 85.572584
RightHand -6.973783 -0.000000 16.114094
RightHandThumb1 -24.326973 -0.000000 -32.862282
LeftUpLeg -31.960636 33.580571 -2.335913
LeftLeg -2.148071 -0.000000 0.000000
LeftFoot 18.937538 36.653095 -1.801804
LeftToeBase 18.252062 -0.000000 -0.000000
RightUpLeg -109.950192 7.745181 56.736063
RightLeg 108.875821 -0.000000 -0.000000
RightFoot -17.779128 -32.696235 14.144475
RightToeBase 9.221883 -0.000000 -0.000000
995
root 19.746624 3.418550 -11.597219 -238.313136 3.987682 -186.962130
Spine 62.800775 4.543738 -8.485551
Head -15.380372 7.015077 0.625469
LeftShoulder 13.718089 -31.228325 -13.384906
LeftArm 20.465510 24.424606 -69.476082
LeftForeArm -82.790496 -0.000000 67.415537
LeftHand -4.383693 0.000000 -13.549996
LeftHandThumb1 -26.253704 0.000000 33.147579
RightShoulder 10.923380 10.493455 -25.515199
RightArm 66.662574 6.083137 4.887390
RightForeArm -9.096323 -0.000000 84.400067
RightHand -6.241095 -0.000000 16.929135
RightHandThumb1 -24.326973 -0.000000 -32.862282
LeftUpLeg -31.851746 33.471039 -2.266717
LeftLeg -2.149723 -0.000000 0.000000
LeftFoot 18.926330 36.558731 -1.730736
LeftToeBase 18.451835 -0.000000 -0.000000
RightUpLeg -109.879772 7.429911 55.476053
RightLeg 108.779789 -0.000000 -0.000000
RightFoot -15.475443 -33.335196 12.660206
RightToeBase 8.755140 -0.000000 -0.000000
996
root 19.736537 3.423816 -11.599143 -238.423888 3.887691 -186.988768
Spine 62.627589 4.607297 -8.465428
Head -14.917264 6.936020 1.000294
LeftShoulder 13.843755 -31.415539 -13.322558
LeftArm 20.929103 24.938421 -69.164484
LeftForeArm -82.280870 -0.000000 65.139019
LeftHand -4.670529 -0.000000 -13.222920
LeftHandThumb1 -26.253704 0.000000 33.147579
RightShoulder 10.998113 10.555284 -25.681023
RightArm 66.495026 5.904715 4.577493
RightForeArm -9.361297 -0.000000 83.293710
RightHand -5.616517 -0.000000 17.763040
RightHandThumb1 -24.326973 -0.000000 -32.862282
LeftUpLeg -31.672104 33.397995 -2.295173
LeftLeg -2.204623 -0.000000 0.000000
LeftFoot 18.895742 36.573818 -1.814790
LeftToeBase 18.359425 -0.000000 -0.000000
RightUpLeg -109.795725 7.108865 54.054137
RightLeg 108.738803 -0.000000 -0.000000
RightFoot -13.134085 -33.760139 11.421879
RightToeBase 8.570155 -0.000000 -0.000000
997
root 19.731928 3.424827 -11.598343 -238.475366 3.827895 -186.944200
Spine 62.388824 4.620673 -8.341730
Head -14.384903 6.781614 1.307393
LeftShoulder 13.994753 -31.621710 -13.271709
LeftArm 21.382311 25.480065 -68.882675
LeftForeArm -81.021728 -0.000000 62.627695
LeftHand -4.619685 -0.000000 -12.740503
LeftHandThumb1 -26.253704 0.000000 33.147579
RightShoulder 11.070184 10.697283 -25.825107
RightArm 66.317900 5.627231 4.242053
RightForeArm -9.308069 -0.000000 82.200149
RightHand -5.083425 -0.000000 18.592846
RightHandThumb1 -24.326973 -0.000000 -32.862282
LeftUpLeg -31.612610 33.313432 -2.297271
LeftLeg -2.206915 -0.000000 0.000000
LeftFoot 18.829602 36.575205 -1.917389
LeftToeBase 18.366667 -0.000000 -0.000000
RightUpLeg -109.743256 6.815599 52.764175
RightLeg 108.659896 -0.000000 -0.000000
RightFoot -10.532585 -34.416471 10.274566
RightToeBase 7.997978 -0.000000 -0.000000
998
root 19.728481 3.431257 -11.601528 -238.598503 3.746910 -186.942283
Spine 62.209777 4.695969 -8.267827
Head -13.865995 6.642829 1.656217
LeftShoulder 14.071475 -31.782332 -13.090833
LeftArm 21.911478 26.018835 -68.609322
LeftForeArm -79.555164 0.000000 60.202308
LeftHand -4.609273 -0.000000 -11.899389
LeftHandThumb1 -26.253704 0.000000 33.147579
RightShoulder 11.158590 10.770830 -25.963454
RightArm 66.094736 5.445561 3.968587
RightForeArm -9.466498 -0.000000 81.241804
RightHand -4.684559 -0.000000 19.411408
RightHandThumb1 -24.326973 -0.000000 -32.862282
LeftUpLeg -31.422162 33.234279 -2.267069
LeftLeg -2.233639 -0.000000 0.000000
LeftFoot 18.836879 36.528631 -1.859232
LeftToeBase 18.340383 -0.000000 -0.000000
RightUpLeg -109.628265 6.467817 51.375777
RightLeg 108.631040 -0.000000 -0.000000
RightFoot -8.008762 -34.801851 9.104775
RightToeBase 7.945858 -0.000000 -0.000000
